<svg id="Capa_1" data-name="Capa 1" xmlns="http://www.w3.org/2000/svg"  width="500" height="300" viewBox="0 0 1744.91 512.42"><defs><style>.cls-1,.cls-2{fill:#fff;stroke:#fff;}.cls-1{stroke-miterlimit:10;}.cls-2{font-size:254.56px;font-family:LucidaConsole, Lucida Console;}</style></defs><polygon class="cls-1" points="166.08 32.21 307.11 112.58 309.34 285.24 360.69 253.98 360.69 87.28 217.8 0.58 166.08 32.21"/><polygon class="cls-1" points="380.04 100.68 380.04 272.4 242.73 354.45 288.87 384.96 432.13 299 432.13 130.82 380.04 100.68"/><polygon class="cls-1" points="432.13 324.31 432.13 384.96 289.24 469.42 145.24 381.98 145.24 322.07 288.69 408.77 432.13 324.31"/><polygon class="cls-1" points="270.27 479.47 217.8 511.84 74.17 427.38 74.17 256.58 127.76 225.33 132.22 396.87 270.27 479.47"/><polygon class="cls-1" points="53.34 412.49 0.5 382.35 0.5 211.93 145.24 127.84 197.34 158.72 54.06 248.31 53.34 412.49"/><path class="cls-1" d="M142.49,505.14" transform="translate(-88.43 -261.09)"/><polygon class="cls-1" points="0.5 130.82 0.5 192.77 145.8 106.54 290.36 192.77 290.36 127.84 145.43 43.75 0.5 130.82"/><polygon class="cls-1" points="529.8 242.82 529.8 345.98 555.76 345.98 555.76 269.52 644.5 269.52 644.5 242.82 529.8 242.82"/><rect class="cls-1" x="529.8" y="175.75" width="123.63" height="26.79"/><polygon class="cls-1" points="714.83 175.75 714.83 345.98 829.52 345.98 829.52 315.56 742.45 315.28 741.62 175.75 714.83 175.75"/><rect class="cls-1" x="940.41" y="175.75" width="26.42" height="170.23"/><g id="Capa_2" data-name="Capa 2"><text class="cls-2" transform="translate(1058.92 339.45) scale(0.97 1)">C</text></g><polygon class="cls-1" points="1244.78 176.02 1244.78 341.42 1270.83 341.42 1270.83 301.98 1385.43 176.02 1347.11 176.02 1270.89 256.69 1271.2 176.02 1244.78 176.02"/><polygon class="cls-1" points="1330.36 272.4 1315.11 291.56 1356.78 343.27 1386.92 343.27 1330.36 272.4"/><polygon class="cls-1" points="1434.17 176.02 1434.17 197.79 1557.71 198.26 1557.71 175.56 1434.17 176.02"/><rect class="cls-1" x="1434.17" y="247.66" width="110.33" height="22.51"/><rect class="cls-1" x="1434.17" y="319.66" width="123.53" height="22.7"/><path class="cls-1" d="M1694.7,436.65v22.7h75.35s24-3.29,29.76,23.58c6.24,28.83-12,39.3-29.58,39.58-24.38.39-75.53,0-75.53,0v80.93h26.42V544.65h40.37l39.25,58.79h31.63L1787.72,540s15.86,2.33,29.12-20c15.53-31-3.07-59.49-5-62.56-11.81-19.63-42-20.84-42-20.84H1695.3" transform="translate(-88.43 -261.09)"/></svg>