<svg xmlns="http://www.w3.org/2000/svg" viewBox="0 0 432.63 512.42"><defs><style>.cls-1{fill:#fff;stroke:#fff;stroke-miterlimit:10;}</style></defs><g id="Capa_2" data-name="Capa 2"><g id="Capa_1-2" data-name="Capa 1"><polygon class="cls-1" points="166.08 32.21 307.11 112.58 309.34 285.24 360.69 253.98 360.69 87.28 217.8 0.58 166.08 32.21"/><polygon class="cls-1" points="380.04 100.68 380.04 272.4 242.73 354.45 288.87 384.96 432.13 299 432.13 130.82 380.04 100.68"/><polygon class="cls-1" points="432.13 324.31 432.13 384.96 289.24 469.42 145.24 381.98 145.24 322.07 288.69 408.77 432.13 324.31"/><polygon class="cls-1" points="270.27 479.47 217.8 511.84 74.17 427.38 74.17 256.58 127.76 225.33 132.22 396.87 270.27 479.47"/><polygon class="cls-1" points="53.34 412.49 0.5 382.35 0.5 211.93 145.24 127.84 197.34 158.72 54.06 248.31 53.34 412.49"/><polygon class="cls-1" points="0.5 130.82 0.5 192.77 145.8 106.54 290.36 192.77 290.36 127.84 145.43 43.75 0.5 130.82"/></g></g></svg>